<svg width="300" height="400" viewBox="0 0 300 400" xmlns="http://www.w3.org/2000/svg">
  <g id="casualSummerOutfit">

    <!-- Sun Hat -->
    <g transform="translate(70, 20)">
      <ellipse cx="100" cy="20" rx="40" ry="15" fill="#DAA520" />
      <ellipse cx="100" cy="30" rx="60" ry="10" fill="#DAA520" />
      <rect x="40" y="20" width="120" height="10" fill="#CD853F" />
    </g>

    <!-- Sunglasses -->
    <g transform="translate(100, 70)">
      <rect x="0" y="0" width="80" height="20" rx="10" ry="10" fill="#36454F" />
      <circle cx="20" cy="10" r="8" fill="#6A5ACD" />
      <circle cx="60" cy="10" r="8" fill="#6A5ACD" />
      <line x1="28" y1="10" x2="52" y2="10" stroke="#36454F" stroke-width="2" />
      <line x1="0" y1="10" x2="-15" y2="5" stroke="#36454F" stroke-width="2" />
      <line x1="80" y1="10" x2="95" y2="5" stroke="#36454F" stroke-width="2" />
    </g>

    <!-- T-shirt -->
    <rect x="80" y="100" width="140" height="150" rx="10" ry="10" fill="#ADD8E6" />
    <path d="M70 120 Q60 130 70 140 Q60 150 70 160 L80 160 L80 120 Z" fill="#ADD8E6" />
    <path d="M230 120 Q240 130 230 140 Q240 150 230 160 L220 160 L220 120 Z" fill="#ADD8E6" />
    <path d="M130 100 Q150 90 170 100 L160 110 Q150 100 140 110 Z" fill="#87CEEB" />

    <!-- Shorts -->
    <path d="M90 260 H210 L200 320 C180 330 120 330 100 320 Z" fill="#F4A460" />
    <path d="M90 260 L100 320 L105 320 L95 260 Z" fill="#C17F3F" />
    <path d="M210 260 L200 320 L195 320 L205 260 Z" fill="#C17F3F" />

    <!-- Left Sandal -->
    <g transform="translate(70 340)">
      <path d="M0 0 Q-10 20 0 40 Q20 50 40 40 Q50 20 40 0 Z" fill="#8B4513" />
      <path d="M15 5 L10 25 M25 5 L20 25" stroke="#D2B48C" stroke-width="3" stroke-linecap="round" />
    </g>
    <!-- Right Sandal -->
    <g transform="translate(180 340)">
      <path d="M0 0 Q-10 20 0 40 Q20 50 40 40 Q50 20 40 0 Z" fill="#8B4513" />
      <path d="M15 5 L10 25 M25 5 L20 25" stroke="#D2B48C" stroke-width="3" stroke-linecap="round" />
    </g>

  </g>
</svg>