<svg width="100%" height="100%" viewBox="0 0 1000 1000" xmlns="http://www.w3.org/2000/svg">
  <rect x="0" y="0" width="1000" height="1000" fill="#111111"/>
  <g transform="translate(500, 500)">
    <circle cx="10.0" cy="0.0" r="7.0" fill="#FF0000" stroke="none"/>
    <circle cx="12.0" cy="0.7" r="6.9" fill="#FF8000" stroke="none"/>
    <circle cx="14.1" cy="1.6" r="6.9" fill="#FFFF00" stroke="none"/>
    <circle cx="16.2" cy="2.8" r="6.8" fill="#80FF00" stroke="none"/>
    <circle cx="18.3" cy="4.2" r="6.7" fill="#00FF00" stroke="none"/>
    <circle cx="20.5" cy="5.9" r="6.7" fill="#00FF80" stroke="none"/>
    <circle cx="22.7" cy="7.8" r="6.6" fill="#00FFFF" stroke="none"/>
    <circle cx="25.0" cy="9.9" r="6.5" fill="#0080FF" stroke="none"/>
    <circle cx="27.3" cy="12.3" r="6.4" fill="#0000FF" stroke="none"/>
    <circle cx="29.7" cy="14.8" r="6.4" fill="#8000FF" stroke="none"/>
    <circle cx="32.1" cy="17.6" r="6.3" fill="#FF00FF" stroke="none"/>
    <circle cx="34.6" cy="20.6" r="6.2" fill="#FF0080" stroke="none"/>
    <circle cx="37.2" cy="23.7" r="6.1" fill="#FF0000" stroke="none"/>
    <circle cx="39.8" cy="27.1" r="6.1" fill="#FF8000" stroke="none"/>
    <circle cx="42.5" cy="30.6" r="6.0" fill="#FFFF00" stroke="none"/>
    <circle cx="45.2" cy="34.4" r="5.9" fill="#80FF00" stroke="none"/>
    <circle cx="48.1" cy="38.4" r="5.8" fill="#00FF00" stroke="none"/>
    <circle cx="51.0" cy="42.6" r="5.8" fill="#00FF80" stroke="none"/>
    <circle cx="54.0" cy="47.0" r="5.7" fill="#00FFFF" stroke="none"/>
    <circle cx="57.1" cy="51.6" r="5.6" fill="#0080FF" stroke="none"/>
    <circle cx="60.3" cy="56.4" r="5.5" fill="#0000FF" stroke="none"/>
    <circle cx="63.5" cy="61.5" r="5.5" fill="#8000FF" stroke="none"/>
    <circle cx="66.9" cy="66.8" r="5.4" fill="#FF00FF" stroke="none"/>
    <circle cx="70.3" cy="72.3" r="5.3" fill="#FF0080" stroke="none"/>
    <circle cx="73.9" cy="78.0" r="5.2" fill="#FF0000" stroke="none"/>
    <circle cx="77.5" cy="83.9" r="5.2" fill="#FF8000" stroke="none"/>
    <circle cx="81.2" cy="90.1" r="5.1" fill="#FFFF00" stroke="none"/>
    <circle cx="85.0" cy="96.5" r="5.0" fill="#80FF00" stroke="none"/>
    <circle cx="88.9" cy="103.1" r="4.9" fill="#00FF00" stroke="none"/>
    <circle cx="92.9" cy="109.9" r="4.9" fill="#00FF80" stroke="none"/>
    <circle cx="97.0" cy="117.0" r="4.8" fill="#00FFFF" stroke="none"/>
    <circle cx="101.2" cy="124.3" r="4.7" fill="#0080FF" stroke="none"/>
    <circle cx="105.5" cy="131.8" r="4.6" fill="#0000FF" stroke="none"/>
    <circle cx="109.9" cy="139.6" r="4.6" fill="#8000FF" stroke="none"/>
    <circle cx="114.4" cy="147.6" r="4.5" fill="#FF00FF" stroke="none"/>
    <circle cx="119.0" cy="155.9" r="4.4" fill="#FF0080" stroke="none"/>
    <circle cx="123.8" cy="164.3" r="4.3" fill="#FF0000" stroke="none"/>
    <circle cx="128.6" cy="173.0" r="4.3" fill="#FF8000" stroke="none"/>
    <circle cx="133.6" cy="182.0" r="4.2" fill="#FFFF00" stroke="none"/>
    <circle cx="138.6" cy="191.1" r="4.1" fill="#80FF00" stroke="none"/>
    <circle cx="143.8" cy="200.5" r="4.0" fill="#00FF00" stroke="none"/>
    <circle cx="149.0" cy="210.1" r="4.0" fill="#00FF80" stroke="none"/>
    <circle cx="154.4" cy="219.9" r="3.9" fill="#00FFFF" stroke="none"/>
    <circle cx="159.9" cy="230.0" r="3.8" fill="#0080FF" stroke="none"/>
    <circle cx="165.5" cy="240.2" r="3.7" fill="#0000FF" stroke="none"/>
    <circle cx="171.2" cy="250.7" r="3.7" fill="#8000FF" stroke="none"/>
    <circle cx="177.0" cy="261.4" r="3.6" fill="#FF00FF" stroke="none"/>
    <circle cx="182.9" cy="272.3" r="3.5" fill="#FF0080" stroke="none"/>
    <circle cx="189.0" cy="283.4" r="3.4" fill="#FF0000" stroke="none"/>
    <circle cx="195.1" cy="294.7" r="3.4" fill="#FF8000" stroke="none"/>
    <circle cx="201.4" cy="306.2" r="3.3" fill="#FFFF00" stroke="none"/>
    <circle cx="207.8" cy="317.9" r="3.2" fill="#80FF00" stroke="none"/>
    <circle cx="214.3" cy="329.8" r="3.1" fill="#00FF00" stroke="none"/>
    <circle cx="220.9" cy="342.0" r="3.1" fill="#00FF80" stroke="none"/>
    <circle cx="227.6" cy="354.3" r="3.0" fill="#00FFFF" stroke="none"/>
    <circle cx="234.4" cy="366.8" r="3.0" fill="#0080FF" stroke="none"/>
    <circle cx="241.4" cy="379.6" r="3.0" fill="#0000FF" stroke="none"/>
    <circle cx="248.4" cy="392.5" r="3.0" fill="#8000FF" stroke="none"/>
    <circle cx="255.6" cy="405.7" r="3.0" fill="#FF00FF" stroke="none"/>
    <circle cx="262.9" cy="419.0" r="3.0" fill="#FF0080" stroke="none"/>
    <circle cx="270.3" cy="432.5" r="3.0" fill="#FF0000" stroke="none"/>
    <circle cx="277.8" cy="446.2" r="3.0" fill="#FF8000" stroke="none"/>
    <circle cx="285.4" cy="460.1" r="3.0" fill="#FFFF00" stroke="none"/>
    <circle cx="293.2" cy="474.2" r="3.0" fill="#80FF00" stroke="none"/>
    <circle cx="301.0" cy="488.4" r="3.0" fill="#00FF00" stroke="none"/>
    <circle cx="309.0" cy="502.9" r="3.0" fill="#00FF80" stroke="none"/>
    <circle cx="317.1" cy="517.5" r="3.0" fill="#00FFFF" stroke="none"/>
    <circle cx="325.2" cy="532.4" r="3.0" fill="#0080FF" stroke="none"/>
    <circle cx="333.5" cy="547.4" r="3.0" fill="#0000FF" stroke="none"/>
    <circle cx="342.0" cy="562.6" r="3.0" fill="#8000FF" stroke="none"/>
    <circle cx="350.5" cy="578.0" r="3.0" fill="#FF00FF" stroke="none"/>
    <circle cx="359.1" cy="593.6" r="3.0" fill="#FF0080" stroke="none"/>
    <circle cx="367.9" cy="609.4" r="3.0" fill="#FF0000" stroke="none"/>
    <circle cx="376.8" cy="625.3" r="3.0" fill="#FF8000" stroke="none"/>
    <circle cx="385.8" cy="641.5" r="3.0" fill="#FFFF00" stroke="none"/>
    <circle cx="394.9" cy="657.8" r="3.0" fill="#80FF00" stroke="none"/>
    <circle cx="404.1" cy="674.3" r="3.0" fill="#00FF00" stroke="none"/>
    <circle cx="413.5" cy="691.0" r="3.0" fill="#00FF80" stroke="none"/>
    <circle cx="423.0" cy="707.9" r="3.0" fill="#00FFFF" stroke="none"/>
    <circle cx="432.6" cy="724.9" r="3.0" fill="#0080FF" stroke="none"/>
    <circle cx="442.3" cy="742.2" r="3.0" fill="#0000FF" stroke="none"/>
    <circle cx="452.2" cy="759.6" r="3.0" fill="#8000FF" stroke="none"/>
    <circle cx="462.2" cy="777.2" r="3.0" fill="#FF00FF" stroke="none"/>
    <circle cx="472.3" cy="795.0" r="3.0" fill="#FF0080" stroke="none"/>
    <circle cx="482.6" cy="813.0" r="3.0" fill="#FF0000" stroke="none"/>
    <circle cx="493.0" cy="831.2" r="3.0" fill="#FF8000" stroke="none"/>
    <circle cx="503.5" cy="849.5" r="3.0" fill="#FFFF00" stroke="none"/>
    <circle cx="514.2" cy="868.1" r="3.0" fill="#80FF00" stroke="none"/>
    <circle cx="525.0" cy="886.8" r="3.0" fill="#00FF00" stroke="none"/>
    <circle cx="535.9" cy="905.7" r="3.0" fill="#00FF80" stroke="none"/>
    <circle cx="547.0" cy="924.9" r="3.0" fill="#00FFFF" stroke="none"/>
    <circle cx="558.2" cy="944.2" r="3.0" fill="#0080FF" stroke="none"/>
    <circle cx="569.6" cy="963.7" r="3.0" fill="#0000FF" stroke="none"/>
    <circle cx="581.1" cy="983.4" r="3.0" fill="#8000FF" stroke="none"/>
    <circle cx="592.7" cy="1003.3" r="3.0" fill="#FF00FF" stroke="none"/>
    <circle cx="604.5" cy="1023.4" r="3.0" fill="#FF0080" stroke="none"/>
    <circle cx="616.4" cy="1043.6" r="3.0" fill="#FF0000" stroke="none"/>
    <circle cx="628.4" cy="1064.1" r="3.0" fill="#FF8000" stroke="none"/>
    <circle cx="640.6" cy="1084.7" r="3.0" fill="#FFFF00" stroke="none"/>
    <circle cx="653.0" cy="1105.6" r="3.0" fill="#80FF00" stroke="none"/>
    <circle cx="665.5" cy="1126.7" r="3.0" fill="#00FF00" stroke="none"/>
    <circle cx="678.1" cy="1147.9" r="3.0" fill="#00FF80" stroke="none"/>
    <circle cx="690.9" cy="1169.4" r="3.0" fill="#00FFFF" stroke="none"/>
    <circle cx="703.9" cy="1191.1" r="3.0" fill="#0080FF" stroke="none"/>
    <circle cx="717.0" cy="1213.0" r="3.0" fill="#0000FF" stroke="none"/>
    <circle cx="730.3" cy="1235.0" r="3.0" fill="#8000FF" stroke="none"/>
  </g>
</svg>