<svg width="300" height="400" viewBox="0 0 300 400" xmlns="http://www.w3.org/2000/svg">
  <!-- Main dress body - red with flowing shape -->
  <path d="M 150 50 C 170 40, 200 40, 220 70 L 210 130 C 220 180, 230 240, 240 300 C 230 330, 170 350, 60 300 C 70 240, 80 180, 90 130 L 80 70 C 100 40, 130 40, 150 50 Z" fill="#E02020"/>

  <!-- Fabric folds - darker red strokes for depth and flow -->
  <path d="M 180 150 C 195 200, 205 250, 215 300" stroke="#C01010" stroke-width="2" fill="none"/>
  <path d="M 120 150 C 105 200, 95 250, 85 300" stroke="#C01010" stroke-width="2" fill="none"/>
  <path d="M 150 140 C 160 200, 140 250, 150 300" stroke="#C01010" stroke-width="2" fill="none"/>

  <!-- Subtle highlight on bodice - lighter red -->
  <path d="M 150 55 C 165 48, 190 48, 205 65 L 195 120 C 185 100, 165 100, 155 120 Z" fill="#F04040"/>
</svg>