<svg xmlns="http://www.w3.org/2000/svg" viewBox="0 0 400 300">
  <!-- Sweeping main stroke -->
  <path d="M 50 50 C 150 20, 250 80, 350 50"
        stroke="#4a4e69" stroke-width="20" fill="none"
        stroke-linecap="round" stroke-linejoin="round" />

  <!-- Wavy flow stroke -->
  <path d="M 30 100 Q 100 80, 150 120 T 250 100 T 300 140"
        stroke="#7b9e89" stroke-width="12" fill="none"
        stroke-linecap="round" stroke-linejoin="round" />

  <!-- Energetic flick stroke -->
  <path d="M 70 180 C 120 160, 150 220, 200 190"
        stroke="#a2836e" stroke-width="8" fill="none"
        stroke-linecap="round" stroke-linejoin="round" />

  <!-- Bold, overlapping stroke -->
  <path d="M 220 150 Q 250 170, 280 150 C 300 130, 320 170, 350 150"
        stroke="#c06014" stroke-width="15" fill="none"
        stroke-linecap="round" stroke-linejoin="round" opacity="0.8" />

  <!-- Group of layered strokes -->
  <g transform="translate(50, 50) rotate(10)">
    <path d="M 10 200 C 30 190, 50 210, 70 200"
          stroke="#e07a5f" stroke-width="10" fill="none"
          stroke-linecap="round" stroke-linejoin="round" />
    <path d="M 20 210 C 40 200, 60 220, 80 210"
          stroke="#f2c4a1" stroke-width="12" fill="none"
          stroke-linecap="round" stroke-linejoin="round" />
  </g>

  <!-- Broad, subtle stroke -->
  <path d="M 100 250 C 180 220, 220 280, 300 250"
        stroke="#81b29a" stroke-width="25" fill="none"
        stroke-linecap="round" stroke-linejoin="round" opacity="0.7" />

  <!-- Arc stroke -->
  <path d="M 100 150 A 50 30 0 1 1 200 150"
        stroke="#c94c4c" stroke-width="18" fill="none"
        stroke-linecap="round" stroke-linejoin="round" opacity="0.9" />

  <!-- Jagged line stroke -->
  <path d="M 300 100 L 320 120 L 340 100 L 360 120"
        stroke="#5e6472" stroke-width="10" fill="none"
        stroke-linecap="round" stroke-linejoin="round" />

  <!-- Short, rotated stroke -->
  <path d="M 10 20 Q 30 0, 50 20 Q 70 40, 90 20"
        stroke="#9b5e5e" stroke-width="16" fill="none"
        stroke-linecap="round" stroke-linejoin="round" transform="translate(250, 200) rotate(45)" />

  <!-- Fine, agitated line -->
  <path d="M 150 10 C 160 5, 170 15, 180 10 S 190 20, 200 15 S 210 5, 220 10"
        stroke="#4f4f4f" stroke-width="5" fill="none"
        stroke-linecap="round" stroke-linejoin="round" transform="translate(0, 100) rotate(-15)" />

  <!-- Very broad, faded base stroke -->
  <path d="M 50 280 C 100 260, 150 290, 200 270 C 250 250, 300 290, 350 270"
        stroke="#b0b0b0" stroke-width="30" fill="none"
        stroke-linecap="round" stroke-linejoin="round" opacity="0.4" />

  <!-- Small dabs/blots -->
  <path d="M 30 30 L 31 31" stroke="#3a3a3a" stroke-width="8" fill="none" stroke-linecap="round" />
  <path d="M 38 40 L 39 41" stroke="#3a3a3a" stroke-width="10" fill="none" stroke-linecap="round" />
  <path d="M 45 35 L 46 36" stroke="#3a3a3a" stroke-width="7" fill="none" stroke-linecap="round" />
</svg>