<svg width="800" height="400" viewBox="0 0 800 400" xmlns="http://www.w3.org/2000/svg">
  <!-- First set of waves, varying shades of blue -->
  <path d="M 0 150 C 100 50 200 250 300 150 S 500 50 600 150 S 800 50 800 150" stroke="#3F51B5" stroke-width="4" fill="none" stroke-linecap="round"/>
  <path d="M 0 165 C 100 65 200 265 300 165 S 500 65 600 165 S 800 65 800 165" stroke="#2196F3" stroke-width="3" fill="none" stroke-linecap="round"/>
  <path d="M 0 180 C 100 80 200 280 300 180 S 500 80 600 180 S 800 80 800 180" stroke="#03A9F4" stroke-width="2" fill="none" stroke-linecap="round"/>

  <!-- Second set of waves, varying shades of green, offset and inverted phase -->
  <path d="M 0 250 C 100 350 200 150 300 250 S 500 350 600 250 S 800 350 800 250" stroke="#4CAF50" stroke-width="4" fill="none" stroke-linecap="round"/>
  <path d="M 0 235 C 100 335 200 135 300 235 S 500 335 600 235 S 800 335 800 235" stroke="#8BC34A" stroke-width="3" fill="none" stroke-linecap="round"/>
  <path d="M 0 220 C 100 320 200 120 300 220 S 500 320 600 220 S 800 320 800 220" stroke="#CDDC39" stroke-width="2" fill="none" stroke-linecap="round"/>

  <!-- Third set of waves, more subtle, different amplitude, warm colors -->
  <path d="M 0 200 C 150 170 300 230 400 200 S 700 170 800 200" stroke="#FFC107" stroke-width="2" fill="none" stroke-linecap="round"/>
  <path d="M 0 208 C 150 178 300 238 400 208 S 700 178 800 208" stroke="#FF9800" stroke-width="1.5" fill="none" stroke-linecap="round"/>
</svg>