<svg viewBox="0 0 1000 1000" xmlns="http://www.w3.org/2000/svg">
  <g>
    <!-- Archimedean spiral formed by a series of brightly colored circles. -->
    <!-- The spiral starts at the center and expands outwards. -->
    <!-- Colors cycle through a rainbow palette for a vibrant effect. -->
    <!-- Parameters: -->
    <!-- Center: 500, 500 -->
    <!-- Spiral expansion factor (b): 2 -->
    <!-- Number of full rotations: 8 -->
    <!-- Number of circles per rotation: 15 -->
    <!-- Radius of each individual circle: 5 -->
    <!-- Total circles generated: (8 * 15) + 1 = 121 -->
    <circle cx="500" cy="500" r="5" fill="#FF0000"/>
    <circle cx="503" cy="502" r="5" fill="#FF7F00"/>
    <circle cx="509" cy="506" r="5" fill="#FFFF00"/>
    <circle cx="517" cy="512" r="5" fill="#00FF00"/>
    <circle cx="527" cy="520" r="5" fill="#00FFFF"/>
    <circle cx="538" cy="531" r="5" fill="#0000FF"/>
    <circle cx="550" cy="544" r="5" fill="#8A2BE2"/>
    <circle cx="564" cy="558" r="5" fill="#FF00FF"/>
    <circle cx="578" cy="574" r="5" fill="#FF0000"/>
    <circle cx="593" cy="591" r="5" fill="#FF7F00"/>
    <circle cx="609" cy="609" r="5" fill="#FFFF00"/>
    <circle cx="625" cy="628" r="5" fill="#00FF00"/>
    <circle cx="642" cy="648" r="5" fill="#00FFFF"/>
    <circle cx="659" cy="670" r="5" fill="#0000FF"/>
    <circle cx="676" cy="692" r="5" fill="#8A2BE2"/>
    <circle cx="694" cy="716" r="5" fill="#FF00FF"/>
    <circle cx="712" cy="740" r="5" fill="#FF0000"/>
    <circle cx="730" cy="766" r="5" fill="#FF7F00"/>
    <circle cx="748" cy="792" r="5" fill="#FFFF00"/>
    <circle cx="767" cy="819" r="5" fill="#00FF00"/>
    <circle cx="786" cy="847" r="5" fill="#00FFFF"/>
    <circle cx="804" cy="876" r="5" fill="#0000FF"/>
    <circle cx="823" cy="905" r="5" fill="#8A2BE2"/>
    <circle cx="842" cy="935" r="5" fill="#FF00FF"/>
    <circle cx="860" cy="966" r="5" fill="#FF0000"/>
    <circle cx="879" cy="997" r="5" fill="#FF7F00"/>
    <circle cx="897" cy="997" r="5" fill="#FFFF00"/>
    <circle cx="915" cy="993" r="5" fill="#00FF00"/>
    <circle cx="932" cy="986" r="5" fill="#00FFFF"/>
    <circle cx="950" cy="975" r="5" fill="#0000FF"/>
    <circle cx="967" cy="961" r="5" fill="#8A2BE2"/>
    <circle cx="984" cy="944" r="5" fill="#FF00FF"/>
    <circle cx="1000" cy="924" r="5" fill="#FF0000"/>
    <circle cx="1016" cy="902" r="5" fill="#FF7F00"/>
    <circle cx="1032" cy="877" r="5" fill="#FFFF00"/>
    <circle cx="1047" cy="850" r="5" fill="#00FF00"/>
    <circle cx="1062" cy="821" r="5" fill="#00FFFF"/>
    <circle cx="1077" cy="790" r="5" fill="#0000FF"/>
    <circle cx="1091" cy="758" r="5" fill="#8A2BE2"/>
    <circle cx="1105" cy="724" r="5" fill="#FF00FF"/>
    <circle cx="1119" cy="689" r="5" fill="#FF0000"/>
    <circle cx="1132" cy="653" r="5" fill="#FF7F00"/>
    <circle cx="1145" cy="616" r="5" fill="#FFFF00"/>
    <circle cx="1158" cy="578" r="5" fill="#00FF00"/>
    <circle cx="1170" cy="539" r="5" fill="#00FFFF"/>
    <circle cx="1182" cy="499" r="5" fill="#0000FF"/>
    <circle cx="1194" cy="459" r="5" fill="#8A2BE2"/>
    <circle cx="1205" cy="418" r="5" fill="#FF00FF"/>
    <circle cx="1216" cy="377" r="5" fill="#FF0000"/>
    <circle cx="1226" cy="335" r="5" fill="#FF7F00"/>
    <circle cx="1237" cy="293" r="5" fill="#FFFF00"/>
    <circle cx="1246" cy="251" r="5" fill="#00FF00"/>
    <circle cx="1256" cy="208" r="5" fill="#00FFFF"/>
    <circle cx="1265" cy="166" r="5" fill="#0000FF"/>
    <circle cx="1274" cy="123" r="5" fill="#8A2BE2"/>
    <circle cx="1282" cy="80" r="5" fill="#FF00FF"/>
    <circle cx="1290" cy="37" r="5" fill="#FF0000"/>
    <circle cx="1298" cy="-5" r="5" fill="#FF7F00"/>
    <circle cx="1305" cy="-48" r="5" fill="#FFFF00"/>
    <circle cx="1312" cy="-90" r="5" fill="#00FF00"/>
    <circle cx="1318" cy="-133" r="5" fill="#00FFFF"/>
    <circle cx="1324" cy="-175" r="5" fill="#0000FF"/>
    <circle cx="1329" cy="-217" r="5" fill="#8A2BE2"/>
    <circle cx="1334" cy="-259" r="5" fill="#FF00FF"/>
    <circle cx="1338" cy="-301" r="5" fill="#FF0000"/>
    <circle cx="1342" cy="-343" r="5" fill="#FF7F00"/>
    <circle cx="1345" cy="-384" r="5" fill="#FFFF00"/>
    <circle cx="1348" cy="-426" r="5" fill="#00FF00"/>
    <circle cx="1349" cy="-467" r="5" fill="#00FFFF"/>
    <circle cx="1350" cy="-508" r="5" fill="#0000FF"/>
    <circle cx="1351" cy="-549" r="5" fill="#8A2BE2"/>
    <circle cx="1350" cy="-590" r="5" fill="#FF00FF"/>
    <circle cx="1349" cy="-631" r="5" fill="#FF0000"/>
    <circle cx="1347" cy="-671" r="5" fill="#FF7F00"/>
    <circle cx="1344" cy="-711" r="5" fill="#FFFF00"/>
    <circle cx="1341" cy="-751" r="5" fill="#00FF00"/>
    <circle cx="1336" cy="-790" r="5" fill="#00FFFF"/>
    <circle cx="1331" cy="-829" r="5" fill="#0000FF"/>
    <circle cx="1325" cy="-868" r="5" fill="#8A2BE2"/>
    <circle cx="1319" cy="-907" r="5" fill="#FF00FF"/>
    <circle cx="1311" cy="-945" r="5" fill="#FF0000"/>
    <circle cx="1304" cy="-983" r="5" fill="#FF7F00"/>
    <circle cx="1295" cy="-1020" r="5" fill="#FFFF00"/>
    <circle cx="1286" cy="-1057" r="5" fill="#00FF00"/>
    <circle cx="1277" cy="-1094" r="5" fill="#00FFFF"/>
    <circle cx="1266" cy="-1130" r="5" fill="#0000FF"/>
    <circle cx="1255" cy="-1166" r="5" fill="#8A2BE2"/>
    <circle cx="1244" cy="-1201" r="5" fill="#FF00FF"/>
    <circle cx="1231" cy="-1236" r="5" fill="#FF0000"/>
    <circle cx="1218" cy="-1270" r="5" fill="#FF7F00"/>
    <circle cx="1205" cy="-1304" r="5" fill="#FFFF00"/>
    <circle cx="1191" cy="-1338" r="5" fill="#00FF00"/>
    <circle cx="1176" cy="-1370" r="5" fill="#00FFFF"/>
    <circle cx="1161" cy="-1403" r="5" fill="#0000FF"/>
    <circle cx="1145" cy="-1434" r="5" fill="#8A2BE2"/>
    <circle cx="1129" cy="-1466" r="5" fill="#FF00FF"/>
    <circle cx="1112" cy="-1497" r="5" fill="#FF0000"/>
    <circle cx="1095" cy="-1527" r="5" fill="#FF7F00"/>
    <circle cx="1077" cy="-1556" r="5" fill="#FFFF00"/>
    <circle cx="1059" cy="-1585" r="5" fill="#00FF00"/>
    <circle cx="1040" cy="-1614" r="5" fill="#00FFFF"/>
    <circle cx="1021" cy="-1642" r="5" fill="#0000FF"/>
    <circle cx="1002" cy="-1669" r="5" fill="#8A2BE2"/>
    <circle cx="981" cy="-1696" r="5" fill="#FF00FF"/>
    <circle cx="961" cy="-1722" r="5" fill="#FF0000"/>
    <circle cx="940" cy="-1748" r="5" fill="#FF7F00"/>
    <circle cx="918" cy="-1773" r="5" fill="#FFFF00"/>
    <circle cx="896" cy="-1797" r="5" fill="#00FF00"/>
    <circle cx="873" cy="-1820" r="5" fill="#00FFFF"/>
    <circle cx="850" cy="-1843" r="5" fill="#0000FF"/>
    <circle cx="827" cy="-1865" r="5" fill="#8A2BE2"/>
    <circle cx="803" cy="-1887" r="5" fill="#FF00FF"/>
    <circle cx="779" cy="-1907" r="5" fill="#FF0000"/>
    <circle cx="755" cy="-1927" r="5" fill="#FF7F00"/>
    <circle cx="730" cy="-1946" r="5" fill="#FFFF00"/>
    <circle cx="705" cy="-1965" r="5" fill="#00FF00"/>
    <circle cx="679" cy="-1982" r="5" fill="#00FFFF"/>
    <circle cx="653" cy="-1999" r="5" fill="#0000FF"/>
    <circle cx="626" cy="-2015" r="5" fill="#8A2BE2"/>
    <circle cx="599" cy="-2030" r="5" fill="#FF00FF"/>
    <circle cx="571" cy="-2044" r="5" fill="#FF0000"/>
    <circle cx="544" cy="-2056" r="5" fill="#FF7F00"/>
    <circle cx="515" cy="-2068" r="5" fill="#FFFF00"/>
    <circle cx="487" cy="-2078" r="5" fill="#00FF00"/>
    <circle cx="459" cy="-2088" r="5" fill="#00FFFF"/>
    <circle cx="430" cy="-2096" r="5" fill="#0000FF"/>
    <circle cx="402" cy="-2103" r="5" fill="#8A2BE2"/>
    <circle cx="373" cy="-2109" r="5" fill="#FF00FF"/>
    <circle cx="344" cy="-2113" r="5" fill="#FF0000"/>
    <circle cx="315" cy="-2116" r="5" fill="#FF7F00"/>
    <circle cx="286" cy="-2118" r="5" fill="#FFFF00"/>
    <circle cx="256" cy="-2118" r="5" fill="#00FF00"/>
    <circle cx="227" cy="-2117" r="5" fill="#00FFFF"/>
    <circle cx="197" cy="-2115" r="5" fill="#0000FF"/>
    <circle cx="168" cy="-2111" r="5" fill="#8A2BE2"/>
    <circle cx="138" cy="-2106" r="5" fill="#FF00FF"/>
    <circle cx="109" cy="-2100" r="5" fill="#FF0000"/>
    <circle cx="79" cy="-2092" r="5" fill="#FF7F00"/>
    <circle cx="50" cy="-2083" r="5" fill="#FFFF00"/>
    <circle cx="21" cy="-2073" r="5" fill="#00FF00"/>
    <circle cx="-8" cy="-2062" r="5" fill="#00FFFF"/>
    <circle cx="-38" cy="-2049" r="5" fill="#0000FF"/>
    <circle cx="-67" cy="-2036" r="5" fill="#8A2BE2"/>
    <circle cx="-96" cy="-2021" r="5" fill="#FF00FF"/>
    <circle cx="-126" cy="-2005" r="5" fill="#FF0000"/>
    <circle cx="-155" cy="-1988" r="5" fill="#FF7F00"/>
    <circle cx="-184" cy="-1970" r="5" fill="#FFFF00"/>
    <circle cx="-213" cy="-1951" r="5" fill="#00FF00"/>
    <circle cx="-241" cy="-1931" r="5" fill="#00FFFF"/>
    <circle cx="-270" cy="-1909" r="5" fill="#0000FF"/>
    <circle cx="-298" cy="-1887" r="5" fill="#8A2BE2"/>
    <circle cx="-326" cy="-1864" r="5" fill="#FF00FF"/>
    <circle cx="-353" cy="-1840" r="5" fill="#FF0000"/>
    <circle cx="-380" cy="-1815" r="5" fill="#FF7F00"/>
    <circle cx="-407" cy="-1789" r="5" fill="#FFFF00"/>
    <circle cx="-433" cy="-1762" r="5" fill="#00FF00"/>
    <circle cx="-459" cy="-1734" r="5" fill="#00FFFF"/>
    <circle cx="-484" cy="-1705" r="5" fill="#0000FF"/>
    <circle cx="-509" cy="-1676" r="5" fill="#8A2BE2"/>
    <circle cx="-533" cy="-1645" r="5" fill="#FF00FF"/>
    <circle cx="-557" cy="-1614" r="5" fill="#FF0000"/>
    <circle cx="-580" cy="-1582" r="5" fill="#FF7F00"/>
    <circle cx="-602" cy="-1549" r="5" fill="#FFFF00"/>
    <circle cx="-624" cy="-1516" r="5" fill="#00FF00"/>
    <circle cx="-645" cy="-1481" r="5" fill="#00FFFF"/>
    <circle cx="-665" cy="-1446" r="5" fill="#0000FF"/>
    <circle cx="-685" cy="-1410" r="5" fill="#8A2BE2"/>
    <circle cx="-704" cy="-1374" r="5" fill="#FF00FF"/>
    <circle cx="-722" cy="-1336" r="5" fill="#FF0000"/>
    <circle cx="-740" cy="-1298" r="5" fill="#FF7F00"/>
    <circle cx="-757" cy="-1260" r="5" fill="#FFFF00"/>
    <circle cx="-773" cy="-1220" r="5" fill="#00FF00"/>
    <circle cx="-788" cy="-1180" r="5" fill="#00FFFF"/>
    <circle cx="-803" cy="-1139" r="5" fill="#0000FF"/>
    <circle cx="-817" cy="-1098" r="5" fill="#8A2BE2"/>
    <circle cx="-830" cy="-1056" r="5" fill="#FF00FF"/>
    <circle cx="-842" cy="-1014" r="5" fill="#FF0000"/>
    <circle cx="-854" cy="-971" r="5" fill="#FF7F00"/>
    <circle cx="-864" cy="-927" r="5" fill="#FFFF00"/>
    <circle cx="-874" cy="-883" r="5" fill="#00FF00"/>
    <circle cx="-883" cy="-839" r="5" fill="#00FFFF"/>
    <circle cx="-891" cy="-794" r="5" fill="#0000FF"/>
    <circle cx="-898" cy="-749" r="5" fill="#8A2BE2"/>
    <circle cx="-904" cy="-703" r="5" fill="#FF00FF"/>
    <circle cx="-909" cy="-658" r="5" fill="#FF0000"/>
    <circle cx="-913" cy="-612" r="5" fill="#FF7F00"/>
    <circle cx="-916" cy="-566" r="5" fill="#FFFF00"/>
    <circle cx="-918" cy="-519" r="5" fill="#00FF00"/>
    <circle cx="-919" cy="-473" r="5" fill="#00FFFF"/>
    <circle cx="-919" cy="-426" r="5" fill="#0000FF"/>
    <circle cx="-918" cy="-379" r="5" fill="#8A2BE2"/>
    <circle cx="-916" cy="-332" r="5" fill="#FF00FF"/>
  </g>
</svg>