<svg viewBox="0 0 400 400" xmlns="http://www.w3.org/2000/svg">
  <defs>
    <!-- Define a single sneaker graphic for reusability -->
    <g id="single_sneaker">
      <!-- Main body of the sneaker -->
      <path d="M0 40 Q10 10 50 10 L130 10 Q140 10 150 20 L150 40 Q150 60 130 60 L20 60 Q0 60 0 40 Z" fill="#DDD"/>
      <!-- Sole of the sneaker -->
      <path d="M0 40 L20 60 L130 60 L150 40 L150 50 Q150 70 130 70 L20 70 Q0 70 0 50 Z" fill="#333"/>
      <!-- Laces -->
      <line x1="40" y1="25" x2="70" y2="35" stroke="#FFF" stroke-width="2"/>
      <line x1="70" y1="25" x2="40" y2="35" stroke="#FFF" stroke-width="2"/>
      <line x1="40" y1="30" x2="70" y2="40" stroke="#FFF" stroke-width="2"/>
      <line x1="70" y1="30" x2="40" y2="40" stroke="#FFF" stroke-width="2"/>
      <!-- Eyelets -->
      <circle cx="35" cy="25" r="2" fill="#FFF"/>
      <circle cx="75" cy="25" r="2" fill="#FFF"/>
      <circle cx="35" cy="35" r="2" fill="#FFF"/>
      <circle cx="75" cy="35" r="2" fill="#FFF"/>
    </g>
  </defs>

  <g id="sports_jacket">
    <!-- Main body of the jacket -->
    <path d="M150 80 L250 80 L250 200 Q250 220 230 220 L170 220 Q150 220 150 200 Z" fill="#4A75B4"/>
    <!-- Left sleeve -->
    <path d="M130 90 L150 90 L150 170 L130 170 Z" fill="#4A75B4"/>
    <!-- Right sleeve -->
    <path d="M250 90 L270 90 L270 170 L250 170 Z" fill="#4A75B4"/>
    <!-- Collar -->
    <path d="M150 80 L170 60 L230 60 L250 80 Z" fill="#3A65A4"/>
    <!-- Zipper strip -->
    <rect x="195" y="80" width="10" height="120" fill="#555"/>
    <!-- Zipper pull tab -->
    <rect x="195" y="200" width="10" height="10" fill="#AAA"/>
  </g>

  <g id="sneakers_display">
    <!-- Left Sneaker -->
    <use href="#single_sneaker" x="70" y="280"/>
    <!-- Right Sneaker -->
    <use href="#single_sneaker" x="200" y="280"/>
  </g>
</svg>