<svg width="600" height="600" viewBox="0 0 600 600" xmlns="http://www.w3.org/2000/svg">
  <defs>
    <!-- Basic petal shape, centered at (0,0) and extending vertically -->
    <path id="petal" d="M 0 -30 C 15 -10 15 10 0 30 C -15 10 -15 -10 0 -30 Z" />
    <!-- A small circle for decorative points -->
    <circle id="dot" cx="0" cy="0" r="4" />
    <!-- An outer spike/arrow shape -->
    <path id="spike" d="M 0 -15 L 10 0 L 0 15 L -10 0 Z" />
  </defs>

  <g transform="translate(300 300)">
    <!-- Main background circle (acts as base) -->
    <circle r="280" fill="#F0F8FF" /> <!-- AliceBlue -->

    <!-- Central circle -->
    <circle r="40" fill="#FFD700" stroke="#DAA520" stroke-width="2"/> <!-- Gold -->

    <!-- Layer 1: Petals around center -->
    <g fill="#FF6347" stroke="#CD5C5C" stroke-width="1.5"> <!-- Tomato -->
      <!-- 12 petals, rotated by 30 degrees each, scaled to fit -->
      <g transform="scale(0.8)">
        <use href="#petal" transform="translate(0 -70)"/>
        <use href="#petal" transform="rotate(30) translate(0 -70)"/>
        <use href="#petal" transform="rotate(60) translate(0 -70)"/>
        <use href="#petal" transform="rotate(90) translate(0 -70)"/>
        <use href="#petal" transform="rotate(120) translate(0 -70)"/>
        <use href="#petal" transform="rotate(150) translate(0 -70)"/>
        <use href="#petal" transform="rotate(180) translate(0 -70)"/>
        <use href="#petal" transform="rotate(210) translate(0 -70)"/>
        <use href="#petal" transform="rotate(240) translate(0 -70)"/>
        <use href="#petal" transform="rotate(270) translate(0 -70)"/>
        <use href="#petal" transform="rotate(300) translate(0 -70)"/>
        <use href="#petal" transform="rotate(330) translate(0 -70)"/>
      </g>
    </g>

    <!-- Layer 2: Circles (dots) -->
    <g fill="#4682B4"> <!-- SteelBlue -->
        <!-- 16 dots, rotated by 22.5 degrees each, scaled slightly -->
        <use href="#dot" transform="translate(0 -105) scale(1.2)"/>
        <use href="#dot" transform="rotate(22.5) translate(0 -105) scale(1.2)"/>
        <use href="#dot" transform="rotate(45) translate(0 -105) scale(1.2)"/>
        <use href="#dot" transform="rotate(67.5) translate(0 -105) scale(1.2)"/>
        <use href="#dot" transform="rotate(90) translate(0 -105) scale(1.2)"/>
        <use href="#dot" transform="rotate(112.5) translate(0 -105) scale(1.2)"/>
        <use href="#dot" transform="rotate(135) translate(0 -105) scale(1.2)"/>
        <use href="#dot" transform="rotate(157.5) translate(0 -105) scale(1.2)"/>
        <use href="#dot" transform="rotate(180) translate(0 -105) scale(1.2)"/>
        <use href="#dot" transform="rotate(202.5) translate(0 -105) scale(1.2)"/>
        <use href="#dot" transform="rotate(225) translate(0 -105) scale(1.2)"/>
        <use href="#dot" transform="rotate(247.5) translate(0 -105) scale(1.2)"/>
        <use href="#dot" transform="rotate(270) translate(0 -105) scale(1.2)"/>
        <use href="#dot" transform="rotate(292.5) translate(0 -105) scale(1.2)"/>
        <use href="#dot" transform="rotate(315) translate(0 -105) scale(1.2)"/>
        <use href="#dot" transform="rotate(337.5) translate(0 -105) scale(1.2)"/>
    </g>

    <!-- Layer 3: Another set of petals, slightly offset and different color -->
    <g transform="rotate(15)" fill="#9932CC" stroke="#8A2BE2" stroke-width="1.5"> <!-- DarkOrchid -->
      <!-- 12 petals, rotated by 30 degrees each, scaled to be larger -->
      <g transform="scale(1.2)">
        <use href="#petal" transform="translate(0 -120)"/>
        <use href="#petal" transform="rotate(30) translate(0 -120)"/>
        <use href="#petal" transform="rotate(60) translate(0 -120)"/>
        <use href="#petal" transform="rotate(90) translate(0 -120)"/>
        <use href="#petal" transform="rotate(120) translate(0 -120)"/>
        <use href="#petal" transform="rotate(150) translate(0 -120)"/>
        <use href="#petal" transform="rotate(180) translate(0 -120)"/>
        <use href="#petal" transform="rotate(210) translate(0 -120)"/>
        <use href="#petal" transform="rotate(240) translate(0 -120)"/>
        <use href="#petal" transform="rotate(270) translate(0 -120)"/>
        <use href="#petal" transform="rotate(300) translate(0 -120)"/>
        <use href="#petal" transform="rotate(330) translate(0 -120)"/>
      </g>
    </g>

    <!-- Layer 4: More dots for a detailed ring -->
    <g fill="#FFA500"> <!-- Orange -->
        <!-- 24 dots, rotated by 15 degrees each -->
        <use href="#dot" transform="translate(0 -170) scale(0.9)"/>
        <use href="#dot" transform="rotate(15) translate(0 -170) scale(0.9)"/>
        <use href="#dot" transform="rotate(30) translate(0 -170) scale(0.9)"/>
        <use href="#dot" transform="rotate(45) translate(0 -170) scale(0.9)"/>
        <use href="#dot" transform="rotate(60) translate(0 -170) scale(0.9)"/>
        <use href="#dot" transform="rotate(75) translate(0 -170) scale(0.9)"/>
        <use href="#dot" transform="rotate(90) translate(0 -170) scale(0.9)"/>
        <use href="#dot" transform="rotate(105) translate(0 -170) scale(0.9)"/>
        <use href="#dot" transform="rotate(120) translate(0 -170) scale(0.9)"/>
        <use href="#dot" transform="rotate(135) translate(0 -170) scale(0.9)"/>
        <use href="#dot" transform="rotate(150) translate(0 -170) scale(0.9)"/>
        <use href="#dot" transform="rotate(165) translate(0 -170) scale(0.9)"/>
        <use href="#dot" transform="rotate(180) translate(0 -170) scale(0.9)"/>
        <use href="#dot" transform="rotate(195) translate(0 -170) scale(0.9)"/>
        <use href="#dot" transform="rotate(210) translate(0 -170) scale(0.9)"/>
        <use href="#dot" transform="rotate(225) translate(0 -170) scale(0.9)"/>
        <use href="#dot" transform="rotate(240) translate(0 -170) scale(0.9)"/>
        <use href="#dot" transform="rotate(255) translate(0 -170) scale(0.9)"/>
        <use href="#dot" transform="rotate(270) translate(0 -170) scale(0.9)"/>
        <use href="#dot" transform="rotate(285) translate(0 -170) scale(0.9)"/>
        <use href="#dot" transform="rotate(300) translate(0 -170) scale(0.9)"/>
        <use href="#dot" transform="rotate(315) translate(0 -170) scale(0.9)"/>
        <use href="#dot" transform="rotate(330) translate(0 -170) scale(0.9)"/>
        <use href="#dot" transform="rotate(345) translate(0 -170) scale(0.9)"/>
    </g>

    <!-- Layer 5: Spikes around the outside -->
    <g fill="#00CED1" stroke="#008B8B" stroke-width="1.5"> <!-- DarkTurquoise -->
        <!-- 20 spikes, rotated by 18 degrees each, scaled and positioned -->
        <g transform="scale(1.5)">
            <use href="#spike" transform="translate(0 -160)"/>
            <use href="#spike" transform="rotate(18) translate(0 -160)"/>
            <use href="#spike" transform="rotate(36) translate(0 -160)"/>
            <use href="#spike" transform="rotate(54) translate(0 -160)"/>
            <use href="#spike" transform="rotate(72) translate(0 -160)"/>
            <use href="#spike" transform="rotate(90) translate(0 -160)"/>
            <use href="#spike" transform="rotate(108) translate(0 -160)"/>
            <use href="#spike" transform="rotate(126) translate(0 -160)"/>
            <use href="#spike" transform="rotate(144) translate(0 -160)"/>
            <use href="#spike" transform="rotate(162) translate(0 -160)"/>
            <use href="#spike" transform="rotate(180) translate(0 -160)"/>
            <use href="#spike" transform="rotate(198) translate(0 -160)"/>
            <use href="#spike" transform="rotate(216) translate(0 -160)"/>
            <use href="#spike" transform="rotate(234) translate(0 -160)"/>
            <use href="#spike" transform="rotate(252) translate(0 -160)"/>
            <use href="#spike" transform="rotate(270) translate(0 -160)"/>
            <use href="#spike" transform="rotate(288) translate(0 -160)"/>
            <use href="#spike" transform="rotate(306) translate(0 -160)"/>
            <use href="#spike" transform="rotate(324) translate(0 -160)"/>
            <use href="#spike" transform="rotate(342) translate(0 -160)"/>
        </g>
    </g>
  </g>
</svg>