<svg width="300" height="350" viewBox="0 0 300 350" xmlns="http://www.w3.org/2000/svg">
  <g fill="saddlebrown" stroke="black" stroke-width="2">
    <!-- Left Coat Panel -->
    <path d="M150 70 L95 70 C85 90 80 120 80 280 Q80 290 90 300 L145 300 L145 70 Z"/>
    <!-- Right Coat Panel -->
    <path d="M150 70 L205 70 C215 90 220 120 220 280 Q220 290 210 300 L155 300 L155 70 Z"/>
    <!-- Collar/Lapels -->
    <path d="M150 70 L95 70 L85 50 L100 40 Q150 30 200 40 L215 50 L205 70 Z"/>
    <!-- Left Sleeve -->
    <path d="M80 120 L50 100 L40 200 L70 220 L80 180 Z"/>
    <!-- Right Sleeve -->
    <path d="M220 120 L250 100 L260 200 L230 220 L220 180 Z"/>
  </g>
  <!-- Buttons on the right panel -->
  <circle cx="170" cy="120" r="6" fill="peru" stroke="black" stroke-width="1"/>
  <circle cx="170" cy="155" r="6" fill="peru" stroke="black" stroke-width="1"/>
  <circle cx="170" cy="190" r="6" fill="peru" stroke="black" stroke-width="1"/>
  <circle cx="170" cy="225" r="6" fill="peru" stroke="black" stroke-width="1"/>
  <circle cx="170" cy="260" r="6" fill="peru" stroke="black" stroke-width="1"/>
</svg>