<svg viewBox="0 0 400 300" xmlns="http://www.w3.org/2000/svg">
  <g id="jacket-group">
    <!-- Jacket Body -->
    <path d="M150 50 L250 50 L260 160 L140 160 Z" fill="#4CAF50" stroke="#388E3C" stroke-width="2"/>
    <!-- Left Sleeve -->
    <path d="M100 60 L150 60 L150 140 L100 140 Z" fill="#4CAF50" stroke="#388E3C" stroke-width="2"/>
    <!-- Right Sleeve -->
    <path d="M250 60 L300 60 L300 140 L250 140 Z" fill="#4CAF50" stroke="#388E3C" stroke-width="2"/>
    <!-- Collar -->
    <path d="M150 50 L250 50 L230 30 L170 30 Z" fill="#388E3C" stroke="#388E3C" stroke-width="2"/>
    <!-- Hem -->
    <rect x="140" y="160" width="120" height="10" fill="#388E3C" stroke="#388E3C" stroke-width="2"/>
    <!-- Left Cuff -->
    <rect x="100" y="140" width="50" height="10" fill="#388E3C" stroke="#388E3C" stroke-width="2"/>
    <!-- Right Cuff -->
    <rect x="250" y="140" width="50" height="10" fill="#388E3C" stroke="#388E3C" stroke-width="2"/>
    <!-- Zipper Line -->
    <line x1="200" y1="50" x2="200" y2="160" stroke="#333" stroke-width="3"/>
    <!-- Pocket -->
    <rect x="205" y="90" width="30" height="25" rx="5" ry="5" fill="#388E3C" stroke="#388E3C" stroke-width="1"/>
  </g>

  <g id="sneakers-group">
    <!-- Sneaker 1 (Left) -->
    <g transform="translate(80 200)">
      <!-- Main body -->
      <path d="M 0 40 Q 10 0 40 0 L 100 0 Q 110 10 100 40 L 90 60 L 10 60 Q 0 50 0 40 Z" fill="#EEE" stroke="#CCC" stroke-width="2"/>
      <!-- Sole -->
      <path d="M 0 60 Q 10 70 20 70 L 90 70 Q 100 60 90 60 L 10 60 Z" fill="#CCC" stroke="#888" stroke-width="2"/>
      <!-- Tongue -->
      <path d="M 40 0 L 60 0 L 55 -10 L 45 -10 Z" fill="#DDD" stroke="#BBB" stroke-width="1"/>
      <!-- Laces -->
      <line x1="10" y1="30" x2="80" y2="30" stroke="#888" stroke-width="2"/>
      <line x1="15" y1="20" x2="75" y2="20" stroke="#888" stroke-width="2"/>
      <line x1="20" y1="10" x2="70" y2="10" stroke="#888" stroke-width="2"/>
      <!-- Eyelets -->
      <circle cx="10" cy="30" r="2" fill="#888"/>
      <circle cx="80" cy="30" r="2" fill="#888"/>
      <circle cx="15" cy="20" r="2" fill="#888"/>
      <circle cx="75" cy="20" r="2" fill="#888"/>
      <circle cx="20" cy="10" r="2" fill="#888"/>
      <circle cx="70" cy="10" r="2" fill="#888"/>
      <!-- Shoe Detail (Swoosh-like) -->
      <path d="M20 45 Q30 50 40 45 Q50 40 60 45" stroke="#555" fill="none" stroke-width="2"/>
    </g>

    <!-- Sneaker 2 (Right) -->
    <g transform="translate(200 205)">
      <!-- Main body -->
      <path d="M 0 40 Q 10 0 40 0 L 100 0 Q 110 10 100 40 L 90 60 L 10 60 Q 0 50 0 40 Z" fill="#EEE" stroke="#CCC" stroke-width="2"/>
      <!-- Sole -->
      <path d="M 0 60 Q 10 70 20 70 L 90 70 Q 100 60 90 60 L 10 60 Z" fill="#CCC" stroke="#888" stroke-width="2"/>
      <!-- Tongue -->
      <path d="M 40 0 L 60 0 L 55 -10 L 45 -10 Z" fill="#DDD" stroke="#BBB" stroke-width="1"/>
      <!-- Laces -->
      <line x1="10" y1="30" x2="80" y2="30" stroke="#888" stroke-width="2"/>
      <line x1="15" y1="20" x2="75" y2="20" stroke="#888" stroke-width="2"/>
      <line x1="20" y1="10" x2="70" y2="10" stroke="#888" stroke-width="2"/>
      <!-- Eyelets -->
      <circle cx="10" cy="30" r="2" fill="#888"/>
      <circle cx="80" cy="30" r="2" fill="#888"/>
      <circle cx="15" cy="20" r="2" fill="#888"/>
      <circle cx="75" cy="20" r="2" fill="#888"/>
      <circle cx="20" cy="10" r="2" fill="#888"/>
      <circle cx="70" cy="10" r="2" fill="#888"/>
      <!-- Shoe Detail (Swoosh-like) -->
      <path d="M20 45 Q30 50 40 45 Q50 40 60 45" stroke="#555" fill="none" stroke-width="2"/>
    </g>
  </g>
</svg>