<svg width="250" height="250" viewBox="0 0 250 250" xmlns="http://www.w3.org/2000/svg">
  <defs>
    <!-- Define a single sneaker model for reuse -->
    <g id="sneaker-model">
      <!-- Main body of the sneaker -->
      <path d="M10 40 C0 30 0 10 10 5 L70 0 L80 20 L70 45 L10 45 Z" fill="#FF4444" stroke="#CC0000" stroke-width="2"/>
      <!-- Sole -->
      <path d="M10 45 L70 45 L75 55 L5 55 Z" fill="#AAAAAA" stroke="#888888" stroke-width="2"/>
      <!-- Laces -->
      <polyline points="25,15 35,25 45,15 55,25 65,15" fill="none" stroke="#FFFFFF" stroke-width="2"/>
      <!-- Eyelets -->
      <circle cx="25" cy="15" r="2" fill="#FFFFFF"/>
      <circle cx="45" cy="15" r="2" fill="#FFFFFF"/>
      <circle cx="65" cy="15" r="2" fill="#FFFFFF"/>
      <circle cx="35" cy="25" r="2" fill="#FFFFFF"/>
      <circle cx="55" cy="25" r="2" fill="#FFFFFF"/>
    </g>
  </defs>

  <!-- Sports Jacket -->
  <g id="sports-jacket" transform="translate(50,10)">
    <!-- Main body of the jacket -->
    <path d="M20 0 H80 L90 80 H10 L20 0 Z" fill="#3F51B5" stroke="#303F9F" stroke-width="2"/>
    <!-- Left sleeve -->
    <path d="M15 10 C0 20 0 50 15 60 L15 70 L25 70 L25 10 Z" fill="#3F51B5" stroke="#303F9F" stroke-width="2"/>
    <!-- Right sleeve -->
    <path d="M85 10 C100 20 100 50 85 60 L85 70 L75 70 L75 10 Z" fill="#3F51B5" stroke="#303F9F" stroke-width="2"/>
    <!-- Collar -->
    <path d="M40 0 H60 L55 10 H45 Z" fill="#212121" stroke="#000000" stroke-width="1"/>
    <!-- Zipper line -->
    <line x1="50" y1="0" x2="50" y2="80" stroke="#BDBDBD" stroke-width="2"/>
    <!-- Pockets -->
    <rect x="25" y="40" width="20" height="15" fill="#303F9F" stroke="#212121" stroke-width="1"/>
    <rect x="55" y="40" width="20" height="15" fill="#303F9F" stroke="#212121" stroke-width="1"/>
  </g>

  <!-- Left Sneaker (placed at 40,150) -->
  <use href="#sneaker-model" transform="translate(40,150)"/>

  <!-- Right Sneaker (flipped horizontally and placed to the right) -->
  <!-- Sneaker model width is approx 80 units (from x=0 to x=80).
       To place it to the right of the first sneaker (which ends at x=40+80=120)
       and have it look like a right shoe, we translate by 120 (start of second shoe)
       + its width (80) to account for the flip, resulting in 200.
       The Y translation remains 150. -->
  <use href="#sneaker-model" transform="translate(200,150) scale(-1,1)"/>
</svg>