<svg width="400" height="400" viewBox="0 0 400 400" xmlns="http://www.w3.org/2000/svg">
  <rect x="0" y="0" width="400" height="400" fill="#1D3557"/>

  <g transform="translate(200 200)">
    <!-- Central elements -->
    <circle r="40" fill="#F1FAEE"/>
    <circle r="30" fill="#A8DADC"/>
    <circle r="20" fill="#E63946"/>
    <circle r="10" fill="#F4A261"/>

    <!-- Layer 1: Inner Petals (12 petals, 30 deg rotation) -->
    <g>
      <path d="M45,0 C55,10 55,-10 45,0 Z" fill="#2A9D8F"/>
    </g>
    <g transform="rotate(30)">
      <path d="M45,0 C55,10 55,-10 45,0 Z" fill="#2A9D8F"/>
    </g>
    <g transform="rotate(60)">
      <path d="M45,0 C55,10 55,-10 45,0 Z" fill="#2A9D8F"/>
    </g>
    <g transform="rotate(90)">
      <path d="M45,0 C55,10 55,-10 45,0 Z" fill="#2A9D8F"/>
    </g>
    <g transform="rotate(120)">
      <path d="M45,0 C55,10 55,-10 45,0 Z" fill="#2A9D8F"/>
    </g>
    <g transform="rotate(150)">
      <path d="M45,0 C55,10 55,-10 45,0 Z" fill="#2A9D8F"/>
    </g>
    <g transform="rotate(180)">
      <path d="M45,0 C55,10 55,-10 45,0 Z" fill="#2A9D8F"/>
    </g>
    <g transform="rotate(210)">
      <path d="M45,0 C55,10 55,-10 45,0 Z" fill="#2A9D8F"/>
    </g>
    <g transform="rotate(240)">
      <path d="M45,0 C55,10 55,-10 45,0 Z" fill="#2A9D8F"/>
    </g>
    <g transform="rotate(270)">
      <path d="M45,0 C55,10 55,-10 45,0 Z" fill="#2A9D8F"/>
    </g>
    <g transform="rotate(300)">
      <path d="M45,0 C55,10 55,-10 45,0 Z" fill="#2A9D8F"/>
    </g>
    <g transform="rotate(330)">
      <path d="M45,0 C55,10 55,-10 45,0 Z" fill="#2A9D8F"/>
    </g>

    <!-- Layer 2: Larger Petals / Leaves (18 elements, 20 deg rotation) -->
    <g>
      <path d="M60,0 Q90,30 120,0 Q90,-30 60,0 Z" fill="#E63946"/>
      <circle cx="105" cy="0" r="8" fill="#F1FAEE"/>
    </g>
    <g transform="rotate(20)">
      <path d="M60,0 Q90,30 120,0 Q90,-30 60,0 Z" fill="#E63946"/>
      <circle cx="105" cy="0" r="8" fill="#F1FAEE"/>
    </g>
    <g transform="rotate(40)">
      <path d="M60,0 Q90,30 120,0 Q90,-30 60,0 Z" fill="#E63946"/>
      <circle cx="105" cy="0" r="8" fill="#F1FAEE"/>
    </g>
    <g transform="rotate(60)">
      <path d="M60,0 Q90,30 120,0 Q90,-30 60,0 Z" fill="#E63946"/>
      <circle cx="105" cy="0" r="8" fill="#F1FAEE"/>
    </g>
    <g transform="rotate(80)">
      <path d="M60,0 Q90,30 120,0 Q90,-30 60,0 Z" fill="#E63946"/>
      <circle cx="105" cy="0" r="8" fill="#F1FAEE"/>
    </g>
    <g transform="rotate(100)">
      <path d="M60,0 Q90,30 120,0 Q90,-30 60,0 Z" fill="#E63946"/>
      <circle cx="105" cy="0" r="8" fill="#F1FAEE"/>
    </g>
    <g transform="rotate(120)">
      <path d="M60,0 Q90,30 120,0 Q90,-30 60,0 Z" fill="#E63946"/>
      <circle cx="105" cy="0" r="8" fill="#F1FAEE"/>
    </g>
    <g transform="rotate(140)">
      <path d="M60,0 Q90,30 120,0 Q90,-30 60,0 Z" fill="#E63946"/>
      <circle cx="105" cy="0" r="8" fill="#F1FAEE"/>
    </g>
    <g transform="rotate(160)">
      <path d="M60,0 Q90,30 120,0 Q90,-30 60,0 Z" fill="#E63946"/>
      <circle cx="105" cy="0" r="8" fill="#F1FAEE"/>
    </g>
    <g transform="rotate(180)">
      <path d="M60,0 Q90,30 120,0 Q90,-30 60,0 Z" fill="#E63946"/>
      <circle cx="105" cy="0" r="8" fill="#F1FAEE"/>
    </g>
    <g transform="rotate(200)">
      <path d="M60,0 Q90,30 120,0 Q90,-30 60,0 Z" fill="#E63946"/>
      <circle cx="105" cy="0" r="8" fill="#F1FAEE"/>
    </g>
    <g transform="rotate(220)">
      <path d="M60,0 Q90,30 120,0 Q90,-30 60,0 Z" fill="#E63946"/>
      <circle cx="105" cy="0" r="8" fill="#F1FAEE"/>
    </g>
    <g transform="rotate(240)">
      <path d="M60,0 Q90,30 120,0 Q90,-30 60,0 Z" fill="#E63946"/>
      <circle cx="105" cy="0" r="8" fill="#F1FAEE"/>
    </g>
    <g transform="rotate(260)">
      <path d="M60,0 Q90,30 120,0 Q90,-30 60,0 Z" fill="#E63946"/>
      <circle cx="105" cy="0" r="8" fill="#F1FAEE"/>
    </g>
    <g transform="rotate(280)">
      <path d="M60,0 Q90,30 120,0 Q90,-30 60,0 Z" fill="#E63946"/>
      <circle cx="105" cy="0" r="8" fill="#F1FAEE"/>
    </g>
    <g transform="rotate(300)">
      <path d="M60,0 Q90,30 120,0 Q90,-30 60,0 Z" fill="#E63946"/>
      <circle cx="105" cy="0" r="8" fill="#F1FAEE"/>
    </g>
    <g transform="rotate(320)">
      <path d="M60,0 Q90,30 120,0 Q90,-30 60,0 Z" fill="#E63946"/>
      <circle cx="105" cy="0" r="8" fill="#F1FAEE"/>
    </g>
    <g transform="rotate(340)">
      <path d="M60,0 Q90,30 120,0 Q90,-30 60,0 Z" fill="#E63946"/>
      <circle cx="105" cy="0" r="8" fill="#F1FAEE"/>
    </g>

    <!-- Layer 3: Outer stars/diamonds (20 elements, 18 deg rotation) -->
    <g>
      <polygon points="135,0 145,10 155,0 145,-10" fill="#F4A261" stroke="#F1FAEE" stroke-width="2"/>
    </g>
    <g transform="rotate(18)">
      <polygon points="135,0 145,10 155,0 145,-10" fill="#F4A261" stroke="#F1FAEE" stroke-width="2"/>
    </g>
    <g transform="rotate(36)">
      <polygon points="135,0 145,10 155,0 145,-10" fill="#F4A261" stroke="#F1FAEE" stroke-width="2"/>
    </g>
    <g transform="rotate(54)">
      <polygon points="135,0 145,10 155,0 145,-10" fill="#F4A261" stroke="#F1FAEE" stroke-width="2"/>
    </g>
    <g transform="rotate(72)">
      <polygon points="135,0 145,10 155,0 145,-10" fill="#F4A261" stroke="#F1FAEE" stroke-width="2"/>
    </g>
    <g transform="rotate(90)">
      <polygon points="135,0 145,10 155,0 145,-10" fill="#F4A261" stroke="#F1FAEE" stroke-width="2"/>
    </g>
    <g transform="rotate(108)">
      <polygon points="135,0 145,10 155,0 145,-10" fill="#F4A261" stroke="#F1FAEE" stroke-width="2"/>
    </g>
    <g transform="rotate(126)">
      <polygon points="135,0 145,10 155,0 145,-10" fill="#F4A261" stroke="#F1FAEE" stroke-width="2"/>
    </g>
    <g transform="rotate(144)">
      <polygon points="135,0 145,10 155,0 145,-10" fill="#F4A261" stroke="#F1FAEE" stroke-width="2"/>
    </g>
    <g transform="rotate(162)">
      <polygon points="135,0 145,10 155,0 145,-10" fill="#F4A261" stroke="#F1FAEE" stroke-width="2"/>
    </g>
    <g transform="rotate(180)">
      <polygon points="135,0 145,10 155,0 145,-10" fill="#F4A261" stroke="#F1FAEE" stroke-width="2"/>
    </g>
    <g transform="rotate(198)">
      <polygon points="135,0 145,10 155,0 145,-10" fill="#F4A261" stroke="#F1FAEE" stroke-width="2"/>
    </g>
    <g transform="rotate(216)">
      <polygon points="135,0 145,10 155,0 145,-10" fill="#F4A261" stroke="#F1FAEE" stroke-width="2"/>
    </g>
    <g transform="rotate(234)">
      <polygon points="135,0 145,10 155,0 145,-10" fill="#F4A261" stroke="#F1FAEE" stroke-width="2"/>
    </g>
    <g transform="rotate(252)">
      <polygon points="135,0 145,10 155,0 145,-10" fill="#F4A261" stroke="#F1FAEE" stroke-width="2"/>
    </g>
    <g transform="rotate(270)">
      <polygon points="135,0 145,10 155,0 145,-10" fill="#F4A261" stroke="#F1FAEE" stroke-width="2"/>
    </g>
    <g transform="rotate(288)">
      <polygon points="135,0 145,10 155,0 145,-10" fill="#F4A261" stroke="#F1FAEE" stroke-width="2"/>
    </g>
    <g transform="rotate(306)">
      <polygon points="135,0 145,10 155,0 145,-10" fill="#F4A261" stroke="#F1FAEE" stroke-width="2"/>
    </g>
    <g transform="rotate(324)">
      <polygon points="135,0 145,10 155,0 145,-10" fill="#F4A261" stroke="#F1FAEE" stroke-width="2"/>
    </g>
    <g transform="rotate(342)">
      <polygon points="135,0 145,10 155,0 145,-10" fill="#F4A261" stroke="#F1FAEE" stroke-width="2"/>
    </g>

    <!-- Layer 4: Outer circles/dots (24 elements, 15 deg rotation) -->
    <g>
      <circle cx="170" cy="0" r="6" fill="#457B9D"/>
    </g>
    <g transform="rotate(15)">
      <circle cx="170" cy="0" r="6" fill="#457B9D"/>
    </g>
    <g transform="rotate(30)">
      <circle cx="170" cy="0" r="6" fill="#457B9D"/>
    </g>
    <g transform="rotate(45)">
      <circle cx="170" cy="0" r="6" fill="#457B9D"/>
    </g>
    <g transform="rotate(60)">
      <circle cx="170" cy="0" r="6" fill="#457B9D"/>
    </g>
    <g transform="rotate(75)">
      <circle cx="170" cy="0" r="6" fill="#457B9D"/>
    </g>
    <g transform="rotate(90)">
      <circle cx="170" cy="0" r="6" fill="#457B9D"/>
    </g>
    <g transform="rotate(105)">
      <circle cx="170" cy="0" r="6" fill="#457B9D"/>
    </g>
    <g transform="rotate(120)">
      <circle cx="170" cy="0" r="6" fill="#457B9D"/>
    </g>
    <g transform="rotate(135)">
      <circle cx="170" cy="0" r="6" fill="#457B9D"/>
    </g>
    <g transform="rotate(150)">
      <circle cx="170" cy="0" r="6" fill="#457B9D"/>
    </g>
    <g transform="rotate(165)">
      <circle cx="170" cy="0" r="6" fill="#457B9D"/>
    </g>
    <g transform="rotate(180)">
      <circle cx="170" cy="0" r="6" fill="#457B9D"/>
    </g>
    <g transform="rotate(195)">
      <circle cx="170" cy="0" r="6" fill="#457B9D"/>
    </g>
    <g transform="rotate(210)">
      <circle cx="170" cy="0" r="6" fill="#457B9D"/>
    </g>
    <g transform="rotate(225)">
      <circle cx="170" cy="0" r="6" fill="#457B9D"/>
    </g>
    <g transform="rotate(240)">
      <circle cx="170" cy="0" r="6" fill="#457B9D"/>
    </g>
    <g transform="rotate(255)">
      <circle cx="170" cy="0" r="6" fill="#457B9D"/>
    </g>
    <g transform="rotate(270)">
      <circle cx="170" cy="0" r="6" fill="#457B9D"/>
    </g>
    <g transform="rotate(285)">
      <circle cx="170" cy="0" r="6" fill="#457B9D"/>
    </g>
    <g transform="rotate(300)">
      <circle cx="170" cy="0" r="6" fill="#457B9D"/>
    </g>
    <g transform="rotate(315)">
      <circle cx="170" cy="0" r="6" fill="#457B9D"/>
    </g>
    <g transform="rotate(330)">
      <circle cx="170" cy="0" r="6" fill="#457B9D"/>
    </g>
    <g transform="rotate(345)">
      <circle cx="170" cy="0" r="6" fill="#457B9D"/>
    </g>
  </g>
</svg>