<svg width="600" height="400" viewBox="0 0 600 400" xmlns="http://www.w3.org/2000/svg">
  <rect x="0" y="0" width="600" height="400" fill="#F0F0F0"/>
  <polygon points="100,350 300,50 500,350" fill="#3357FF"/>
  <polygon points="150,100 250,300 350,100" fill="#FFC300" stroke="#FF5733" stroke-width="5"/>
  <polygon points="400,100 550,200 300,250" fill="#33FF57"/>
  <polygon points="50,50 150,150 250,50" fill="#C70039"/>
  <polygon points="520,300 580,380 480,380" fill="#FF5733"/>
  <polygon points="200,20 250,120 150,120" fill="#581845"/>
  <polygon points="350,350 450,250 550,350" fill="#DAF7A6" opacity="0.7"/>
  <polygon points="20,200 80,250 10,280" fill="#900C3F"/>
  <polygon points="280,180 420,280 320,380" fill="#FF5733"/>
  <polygon points="10,10 100,10 50,80" fill="#3357FF"/>
  <polygon points="200,200 300,200 250,280" fill="#C70039" opacity="0.6"/>
  <polygon points="50,300 150,250 100,380" fill="#33FF57" stroke="#581845" stroke-width="2"/>
</svg>