<svg width="800" height="600" viewBox="0 0 800 600" xmlns="http://www.w3.org/2000/svg">
  <!-- Sky: Layered rectangles to simulate a sunset gradient -->
  <rect x="0" y="0" width="800" height="600" fill="#1A2238"/> <!-- Deepest night blue (base sky) -->
  <rect x="0" y="80" width="800" height="520" fill="#3A405A"/> <!-- Darker blue-purple -->
  <rect x="0" y="180" width="800" height="420" fill="#7B6B9D"/> <!-- Muted purple -->
  <rect x="0" y="280" width="800" height="320" fill="#FF8C69"/> <!-- Coral/Peach for sunset glow -->
  <rect x="0" y="350" width="800" height="250" fill="#FFDDAA"/> <!-- Light peach/yellow near horizon -->

  <!-- Sun: A circle, partially hidden by the horizon/mountains -->
  <circle cx="400" cy="400" r="100" fill="#FF9A00"/> <!-- Vibrant orange sun -->
  <circle cx="400" cy="400" r="80" fill="#FFC300"/>  <!-- Golden yellow inner sun -->

  <!-- Distant Mountains/Horizon: A path element forming a dark silhouette -->
  <path d="M0 420 Q150 390 300 420 Q450 380 600 420 Q700 400 800 420 L800 600 L0 600 Z" fill="#1D2D44"/> <!-- Very dark blue-grey mountains -->

  <!-- Lake: A large rectangle for the water body -->
  <rect x="0" y="420" width="800" height="180" fill="#0A1128"/> <!-- Very dark blue for calm water -->

  <!-- Sun Reflection on Water: Ellipses with opacity for a diffused reflection -->
  <ellipse cx="400" cy="490" rx="90" ry="40" fill="#FF9A00" opacity="0.6"/>
  <ellipse cx="400" cy="500" rx="70" ry="30" fill="#FFC300" opacity="0.7"/>

  <!-- Water Ripples/Light Streaks: Thin rectangles with opacity for subtle effects -->
  <rect x="300" y="470" width="200" height="3" fill="#FFC300" opacity="0.3"/>
  <rect x="350" y="510" width="100" height="2" fill="#FF9A00" opacity="0.2"/>
  <rect x="320" y="530" width="160" height="2" fill="#FFDDAA" opacity="0.3"/>
</svg>