<svg viewBox="0 0 800 600" xmlns="http://www.w3.org/2000/svg">
  <!-- Sky (simulated gradient with multiple rectangles) -->
  <rect x="0" y="0" width="800" height="150" fill="#191970"/> <!-- Midnight Blue (top) -->
  <rect x="0" y="100" width="800" height="150" fill="#483D8B"/> <!-- Dark Slate Blue -->
  <rect x="0" y="200" width="800" height="150" fill="#FF4500"/> <!-- Orange Red (main sunset glow) -->
  <rect x="0" y="280" width="800" height="70" fill="#FFD700"/> <!-- Gold (near horizon) -->

  <!-- Sun -->
  <circle cx="400" cy="300" r="70" fill="#FFFFE0"/> <!-- Light Yellow -->

  <!-- Distant Mountains/Land (horizon at y=350) -->
  <path d="M0 350 L100 310 L250 330 L400 300 L550 320 L700 300 L800 320 L800 350 Z" fill="#000020"/> <!-- Very dark blue silhouette -->

  <!-- Lake (Horizon at y=350) -->
  <rect x="0" y="350" width="800" height="250" fill="#000030"/> <!-- Dark blue water base -->

  <!-- Sun Reflection on Water (ellipses for ripple effect) -->
  <ellipse cx="400" cy="370" rx="60" ry="25" fill="#FFD700" opacity="0.7"/>
  <ellipse cx="400" cy="400" rx="50" ry="20" fill="#FFA500" opacity="0.6"/>
  <ellipse cx="400" cy="430" rx="40" ry="15" fill="#FF4500" opacity="0.5"/>

  <!-- Sky Reflection on Water (horizontal bands, darker and blurred) -->
  <rect x="0" y="350" width="800" height="50" fill="#FFD700" opacity="0.2"/>
  <rect x="0" y="400" width="800" height="50" fill="#FF4500" opacity="0.15"/>
  <rect x="0" y="450" width="800" height="50" fill="#483D8B" opacity="0.1"/>
  <rect x="0" y="500" width="800" height="50" fill="#191970" opacity="0.05"/>

  <!-- Water Texture Lines (subtle ripples) -->
  <line x1="0" y1="420" x2="800" y2="420" stroke="#ADD8E6" stroke-width="0.5" opacity="0.3"/>
  <line x1="0" y1="470" x2="800" y2="470" stroke="#ADD8E6" stroke-width="0.5" opacity="0.2"/>
  <line x1="0" y1="520" x2="800" y2="520" stroke="#ADD8E6" stroke-width="0.5" opacity="0.15"/>
  <line x1="0" y1="570" x2="800" y2="570" stroke="#ADD8E6" stroke-width="0.5" opacity="0.1"/>
</svg>