<svg width="400" height="400" viewBox="0 0 400 400" xmlns="http://www.w3.org/2000/svg">
  <!-- Background rectangle -->
  <rect x="0" y="0" width="400" height="400" fill="#F8F8F8"/>

  <!-- Main group, centered for easier geometry -->
  <g transform="translate(200,200)">
    <!-- Concentric circles -->
    <circle cx="0" cy="0" r="180" fill="none" stroke="#E0E0E0" stroke-width="1"/>
    <circle cx="0" cy="0" r="150" fill="none" stroke="#D0D0D0" stroke-width="1"/>
    <circle cx="0" cy="0" r="120" fill="none" stroke="#C0C0C0" stroke-width="1"/>
    <circle cx="0" cy="0" r="90" fill="none" stroke="#B0B0B0" stroke-width="1"/>
    <circle cx="0" cy="0" r="60" fill="none" stroke="#A0A0A0" stroke-width="1"/>
    
    <!-- Central filled circle -->
    <circle cx="0" cy="0" r="30" fill="#909090" stroke="#808080" stroke-width="1"/>

    <!-- Radial lines at 90-degree intervals -->
    <line x1="0" y1="0" x2="0" y2="-180" stroke="#CCC" stroke-width="1"/>
    <line x1="0" y1="0" x2="0" y2="180" stroke="#CCC" stroke-width="1"/>
    <line x1="0" y1="0" x2="180" y2="0" stroke="#CCC" stroke-width="1"/>
    <line x1="0" y1="0" x2="-180" y2="0" stroke="#CCC" stroke-width="1"/>

    <!-- Radial lines at 45-degree intervals -->
    <line x1="0" y1="0" x2="127.27" y2="-127.27" stroke="#BBB" stroke-width="1"/>
    <line x1="0" y1="0" x2="-127.27" y2="-127.27" stroke="#BBB" stroke-width="1"/>
    <line x1="0" y1="0" x2="127.27" y2="127.27" stroke="#BBB" stroke-width="1"/>
    <line x1="0" y1="0" x2="-127.27" y2="127.27" stroke="#BBB" stroke-width="1"/>

    <!-- Radial lines at 30-degree intervals -->
    <line x1="0" y1="0" x2="155.88" y2="-90" stroke="#AAA" stroke-width="1"/>
    <line x1="0" y1="0" x2="155.88" y2="90" stroke="#AAA" stroke-width="1"/>
    <line x1="0" y1="0" x2="-155.88" y2="-90" stroke="#AAA" stroke-width="1"/>
    <line x1="0" y1="0" x2="-155.88" y2="90" stroke="#AAA" stroke-width="1"/>

    <!-- Radial lines at 60-degree intervals -->
    <line x1="0" y1="0" x2="90" y2="-155.88" stroke="#999" stroke-width="1"/>
    <line x1="0" y1="0" x2="-90" y2="-155.88" stroke="#999" stroke-width="1"/>
    <line x1="0" y1="0" x2="90" y2="155.88" stroke="#999" stroke-width="1"/>
    <line x1="0" y1="0" x2="-90" y2="155.88" stroke="#999" stroke-width="1"/>
  </g>
</svg>