<svg width="600" height="400" viewBox="0 0 600 400" xmlns="http://www.w3.org/2000/svg">
  <rect x="0" y="0" width="600" height="400" fill="#F8F8F8" />

  <path d="M 50 100 C 150 20 300 180 400 80 S 550 20 570 120 C 590 150 500 200 400 180"
        stroke="#264653" stroke-width="60" fill="none" stroke-linecap="round" stroke-linejoin="round" stroke-opacity="0.9" />

  <path d="M 30 200 C 100 150 250 250 350 200 S 500 180 550 250 C 580 280 450 330 300 300 S 100 350 50 300"
        stroke="#2A9D8F" stroke-width="45" fill="none" stroke-linecap="round" stroke-linejoin="round" stroke-opacity="0.85" />

  <path d="M 150 300 Q 250 250 350 300 T 450 280"
        stroke="#E9C46A" stroke-width="55" fill="none" stroke-linecap="round" stroke-linejoin="round" stroke-opacity="0.9" />

  <path d="M 400 30 C 420 80 380 150 450 180 S 500 220 520 200"
        stroke="#F4A261" stroke-width="35" fill="none" stroke-linecap="round" stroke-linejoin="round" stroke-opacity="0.8" />

  <path d="M 80 280 L 120 320 L 100 350"
        stroke="#E76F51" stroke-width="25" fill="none" stroke-linecap="round" stroke-linejoin="round" stroke-opacity="0.95" />

  <path d="M 500 350 C 520 340 530 370 500 380 S 470 360 500 350Z"
        fill="#264653" stroke="none" stroke-opacity="0.7" />

  <path d="M 100 50 C 130 40 140 70 100 80 S 60 70 100 50Z"
        fill="#E9C46A" stroke="none" stroke-opacity="0.8" transform="rotate(-15 100 50)" />

  <path d="M 200 10 Q 250 5 300 10"
        stroke="#1D3557" stroke-width="8" fill="none" stroke-linecap="round" stroke-linejoin="round" stroke-opacity="0.6" />
</svg>